<?xml version="1.0" standalone="no"?>
<!DOCTYPE svg PUBLIC "-//W3C//DTD SVG 20010904//EN"
 "http://www.w3.org/TR/2001/REC-SVG-20010904/DTD/svg10.dtd">
<svg version="1.0" xmlns="http://www.w3.org/2000/svg"
 width="200.000000pt" height="200.000000pt" viewBox="0 0 200.000000 200.000000"
 preserveAspectRatio="xMidYMid meet">
<metadata>
Created by potrace 1.15, written by Peter Selinger 2001-2017
</metadata>
<g transform="translate(0.000000,200.000000) scale(0.100000,-0.100000)"
fill="#000000" stroke="none">
<path d="M611 1749 c-250 -65 -458 -122 -463 -127 -15 -15 -10 -974 5 -988 29
-28 893 -494 914 -494 18 0 132 96 409 341 l384 340 -2 346 -3 346 -356 162
c-196 89 -374 169 -395 177 -38 15 -45 14 -493 -103z m794 -133 c187 -85 340
-159 340 -164 0 -13 -688 -1201 -696 -1202 -12 0 -550 903 -542 910 6 5 803
179 1001 218 22 4 32 32 11 32 -8 0 -974 -149 -1055 -163 -18 -3 -36 21 -114
151 -51 84 -88 158 -84 162 8 7 763 207 789 209 6 1 163 -68 350 -153z m-764
-816 c168 -256 313 -478 324 -493 l18 -28 -64 35 c-35 19 -206 113 -379 208
l-315 174 -2 374 -3 375 58 -90 c32 -49 196 -299 363 -555z m1139 292 l0 -218
-242 -215 c-294 -261 -288 -256 -251 -192 125 219 489 843 491 843 1 0 2 -98
2 -218z"/>
</g>
</svg>
