<?xml version="1.0" encoding="UTF-8" standalone="no"?>
<!DOCTYPE svg PUBLIC "-//W3C//DTD SVG 1.1//EN" "http://www.w3.org/Graphics/SVG/1.1/DTD/svg11.dtd">
<svg version="1.1" xmlns="http://www.w3.org/2000/svg" xmlns:xlink="http://www.w3.org/1999/xlink" preserveAspectRatio="xMidYMid meet" viewBox="0 0 60 60" width="60" height="60"><defs><path d="M261.91 225C261.91 241.56 248.47 255 231.91 255C215.35 255 201.91 241.56 201.91 225C201.91 208.44 215.35 195 231.91 195C248.47 195 261.91 208.44 261.91 225Z" id="a1h7sCULHo"></path><path d="M45 15C46.04 15 46.88 15.84 46.88 16.88C46.88 17.25 46.88 16.5 46.88 16.88C46.88 17.91 46.04 18.75 45 18.75C38.63 18.75 21.38 18.75 15 18.75C13.96 18.75 13.13 17.91 13.13 16.88C13.13 16.5 13.13 17.25 13.13 16.88C13.13 15.84 13.96 15 15 15C21.38 15 38.63 15 45 15Z" id="a2zmo4KR8r"></path><path d="M44.37 28.38C45.41 28.38 46.25 29.22 46.25 30.26C46.25 30.63 46.25 29.88 46.25 30.26C46.25 31.29 45.41 32.13 44.37 32.13C38 32.13 20.75 32.13 14.37 32.13C13.34 32.13 12.5 31.29 12.5 30.26C12.5 29.88 12.5 30.63 12.5 30.26C12.5 29.22 13.34 28.38 14.37 28.38C20.75 28.38 38 28.38 44.37 28.38Z" id="akzKkcLWa"></path><path d="M45 41.25C46.04 41.25 46.88 42.09 46.88 43.13C46.88 43.5 46.88 42.75 46.88 43.13C46.88 44.16 46.04 45 45 45C38.63 45 21.38 45 15 45C13.96 45 13.13 44.16 13.13 43.13C13.13 42.75 13.13 43.5 13.13 43.13C13.13 42.09 13.96 41.25 15 41.25C21.38 41.25 38.63 41.25 45 41.25Z" id="c6lt4ZFKxR"></path></defs><g><g><g><use xlink:href="#a1h7sCULHo" opacity="1" fill="#fe4656" fill-opacity="1"></use></g><g><use xlink:href="#a2zmo4KR8r" opacity="1" fill="#a1a1a1" fill-opacity="1"></use></g><g><use xlink:href="#akzKkcLWa" opacity="1" fill="#a1a1a1" fill-opacity="1"></use></g><g><use xlink:href="#c6lt4ZFKxR" opacity="1" fill="#a1a1a1" fill-opacity="1"></use></g></g></g></svg>