<?xml version="1.0" standalone="no"?>
<!DOCTYPE svg PUBLIC "-//W3C//DTD SVG 20010904//EN"
 "http://www.w3.org/TR/2001/REC-SVG-20010904/DTD/svg10.dtd">
<svg version="1.0" xmlns="http://www.w3.org/2000/svg"
 width="300.000000pt" height="300.000000pt" viewBox="0 0 300.000000 300.000000"
 preserveAspectRatio="xMidYMid meet">
<metadata>
Created by potrace 1.15, written by Peter Selinger 2001-2017
</metadata>
<g transform="translate(0.000000,300.000000) scale(0.100000,-0.100000)"
fill="#000000" stroke="none">
<style type="text/css">
    <![CDATA[
    .grey { fill: darkgray; }
    ]]>
  </style>
<path class="grey" d="M1285 2691 c-22 -5 -81 -9 -130 -9 -120 0 -217 -19 -213 -41 2 -9 16
-18 32 -21 23 -4 15 -8 -39 -18 -102 -19 -236 -94 -212 -119 3 -3 44 5 92 17
47 13 88 20 91 17 3 -3 -11 -24 -32 -47 -90 -96 -153 -221 -175 -347 -8 -41
-22 -81 -37 -100 -42 -57 -69 -183 -39 -183 7 0 24 19 38 43 23 41 24 41 27
15 2 -15 -4 -47 -12 -73 -9 -25 -16 -52 -16 -60 0 -20 27 -19 38 1 7 13 13 7
25 -31 48 -139 189 -307 313 -373 120 -63 219 -84 392 -84 l124 0 -63 -36
c-99 -57 -218 -182 -263 -273 -21 -42 -38 -92 -39 -110 l-2 -34 61 -3 c78 -4
145 18 314 103 l128 64 26 -34 c14 -18 26 -35 26 -38 0 -2 -36 -32 -80 -66
-103 -82 -140 -131 -140 -188 0 -38 9 -55 80 -150 66 -90 80 -114 80 -145 0
-44 -13 -55 -115 -93 -86 -32 -135 -62 -135 -81 0 -12 31 -14 175 -14 l175 0
0 418 0 419 108 6 c178 10 277 55 399 179 85 87 133 166 133 218 0 53 -42 36
-76 -33 -26 -50 -103 -141 -136 -158 -29 -15 -22 -4 41 67 45 50 66 84 85 139
52 146 57 205 18 205 -26 0 -34 -10 -82 -120 -33 -75 -55 -108 -103 -157 -58
-60 -77 -73 -77 -55 0 4 29 44 64 89 65 82 77 109 111 251 22 92 20 112 -9
112 -34 0 -72 -50 -92 -118 -9 -31 -29 -71 -45 -89 -15 -18 -46 -63 -68 -101
-41 -71 -89 -120 -154 -161 -33 -20 -42 -22 -62 -11 -43 23 -49 54 -53 248 -2
122 -7 182 -14 182 -6 0 -60 -48 -120 -106 -82 -80 -113 -105 -131 -102 -15 2
-23 11 -25 29 -3 22 19 47 142 165 l146 139 0 88 c0 48 -3 87 -7 87 -5 0 -30
-11 -57 -25 -113 -57 -242 -9 -290 107 -28 67 -14 160 31 210 8 9 13 24 10 33
-10 25 49 49 123 50 53 0 76 -6 119 -27 29 -16 57 -28 62 -28 5 0 9 61 9 136
l0 135 -63 29 c-34 15 -90 36 -122 45 -69 19 -251 28 -310 16z m-99 -908 c34
-22 64 -84 64 -132 0 -44 -46 -113 -60 -90 -5 8 -19 10 -40 6 -18 -4 -45 -1
-63 7 -89 37 -107 138 -35 199 38 32 94 36 134 10z"/>
</g>
</svg>
